<?xml version="1.0"?>
<svg version="1.1" xmlns="http://www.w3.org/2000/svg" width="217px" height="54px" style="border: 2px #aaa"><path fill="#" d="M19.044,40.748c0,0.252-0.112,0.42-0.448,0.56c-1.848,0.756-3.528,1.148-5.572,1.148c-5.908,0-8.792-4.172-8.792-9.94c0-5.74,3.444-10.136,9.072-10.136c1.932,0,3.668,0.392,5.264,1.176c0.336,0.168,0.448,0.308,0.448,0.476c0,0.112-0.028,0.224-0.084,0.364l-0.644,1.764c-0.084,0.252-0.224,0.364-0.392,0.364c-0.084,0-0.196-0.056-0.308-0.112c-1.4-0.728-2.66-1.008-4.06-1.008c-3.892,0-5.404,3.584-5.404,6.972c0,4.312,2.016,7.056,5.46,7.056c1.344,0,2.716-0.308,4.032-0.896c0.14-0.056,0.252-0.112,0.336-0.112c0.196,0,0.336,0.14,0.448,0.42l0.56,1.512c0.056,0.14,0.084,0.28,0.084,0.392z M36.306,41.588c0,0.336-0.224,0.532-0.56,0.532l-1.344,0c-1.456,0-2.1-0.7-2.296-1.652l-0.056,0c-0.7,1.036-2.52,1.988-4.06,1.988c-3.948,0-5.74-3.248-5.74-6.888c0-4.844,2.912-7.392,6.048-7.392c1.484,0,2.884,0.672,3.584,1.624l0.056-0.756c0.028-0.308,0.252-0.504,0.588-0.504l1.96,0c0.364,0,0.588,0.196,0.588,0.616l0,9.716c0,0.392,0.056,0.672,0.168,0.812c0.084,0.084,0.196,0.112,0.336,0.112l0.224,0c0.336,0,0.504,0.112,0.504,0.476l0,1.316z M31.686,37.78l0-5.404c-0.56-0.812-1.708-1.428-2.772-1.428c-1.708,0-3.164,1.456-3.164,4.396c0,2.352,0.896,4.34,2.968,4.34c1.372,0,2.548-1.036,2.968-1.904z M60.68,41.42c0,0.504-0.196,0.7-0.672,0.7l-1.96,0c-0.504,0-0.728-0.196-0.728-0.7l0-7.672c0-1.512-0.392-2.66-2.1-2.66c-1.064,0-2.296,0.56-3.164,1.26c0.056,0.252,0.112,4.004,0.112,4.396l0,4.676c0,0.504-0.196,0.7-0.672,0.7l-1.848,0c-0.504,0-0.728-0.196-0.728-0.7l0-7.672c0-1.484-0.308-2.66-2.016-2.66c-1.092,0-2.212,0.616-3.108,1.4l0,8.932c0,0.504-0.224,0.7-0.7,0.7l-1.96,0c-0.504,0-0.728-0.196-0.728-0.7l0-12.236c0-0.448,0.252-0.644,0.672-0.644l1.82,0c0.42,0,0.672,0.14,0.7,0.532l0.028,0.7c1.148-1.008,2.66-1.596,4.116-1.596c1.708,0,2.912,0.756,3.556,1.82c1.26-1.204,3.08-1.82,4.788-1.82c2.044,0,3.332,1.008,3.92,2.1c0.532,1.036,0.672,2.268,0.672,4.06l0,7.084z M78.754,35.148c0,2.128-0.644,4.06-1.82,5.432c-1.036,1.176-2.492,1.904-4.312,1.904c-1.288,0-2.576-0.476-3.388-1.316l0,6.272c0,0.56-0.252,0.728-0.728,0.728l-1.96,0c-0.448,0-0.672-0.252-0.672-0.728l0-18.256c0-0.476,0.224-0.644,0.672-0.644l1.68,0c0.476,0,0.728,0.112,0.756,0.532l0.028,0.756c0.812-0.924,2.408-1.624,3.92-1.624c1.848,0,3.136,0.7,4.06,1.708c1.204,1.316,1.764,3.276,1.764,5.236z M75.226,35.316c0-1.316-0.252-2.464-0.812-3.248c-0.532-0.756-1.316-1.148-2.296-1.148c-1.036,0-2.324,0.672-2.884,1.372l0,6.104c0.56,0.756,1.68,1.372,2.744,1.372c0.98,0,1.764-0.448,2.24-1.036c0.7-0.868,1.008-2.044,1.008-3.416z M86.916,24.984c0,1.092-0.952,1.764-1.876,1.764s-1.904-0.616-1.904-1.736s0.924-1.792,1.904-1.792c0.952,0,1.876,0.644,1.876,1.764z M86.748,41.42c0,0.504-0.224,0.7-0.7,0.7l-1.96,0c-0.504,0-0.728-0.196-0.728-0.7l0-12.236c0-0.476,0.28-0.644,0.728-0.644l1.96,0c0.448,0,0.7,0.14,0.7,0.644l0,12.236z M104.29,41.392c0,0.476-0.168,0.728-0.672,0.728l-2.016,0c-0.504,0-0.672-0.252-0.672-0.728l0-7.616c0-1.54-0.42-2.632-2.128-2.632c-1.092,0-2.436,0.588-3.304,1.344l0,8.932c0,0.476-0.196,0.7-0.672,0.7l-2.044,0c-0.42,0-0.672-0.224-0.672-0.672l0-12.208c0-0.448,0.196-0.7,0.7-0.7l1.82,0c0.392,0,0.644,0.112,0.672,0.532l0.028,0.728c1.288-1.036,2.912-1.624,4.536-1.624c3.136,0,4.424,1.96,4.424,5.012l0,8.204z M121.58,41.196c0,4.536-1.932,7.056-6.636,7.056c-1.372,0-2.8-0.28-4.144-0.868c-0.308-0.14-0.448-0.308-0.448-0.56c0-0.14,0.056-0.252,0.084-0.364l0.392-1.232c0.112-0.308,0.224-0.504,0.42-0.504c0.14,0,0.28,0.056,0.42,0.112c1.008,0.42,2.156,0.728,3.136,0.728c2.8,0,3.388-1.484,3.388-3.724l0-1.12c-0.84,0.812-2.408,1.428-3.64,1.428c-1.736,0-3.136-0.56-4.116-1.596c-1.176-1.204-1.764-3.024-1.764-5.068c0-3.752,2.184-7.28,6.244-7.28c0.672,0,1.372,0.168,2.016,0.448c0.532,0.224,1.092,0.644,1.428,1.12l0.056-0.728c0.028-0.364,0.224-0.504,0.644-0.504l1.848,0c0.504,0,0.672,0.196,0.672,0.672l0,11.984z M118.192,38.06l0-5.768c-0.56-0.756-1.652-1.372-2.716-1.372c-0.868,0-1.568,0.336-2.072,0.812c-0.868,0.84-1.204,2.268-1.204,3.556c0,1.232,0.28,2.548,1.12,3.36c0.504,0.504,1.232,0.756,1.988,0.756c1.092,0,2.324-0.644,2.884-1.344z"/><path fill="#32c7bf" d="M141.832,23.22l0,0.168l-0.196,1.68c-0.056,0.504-0.364,0.588-0.952,0.588l-7.028,0l0,5.068l6.468,0c0.532,0,0.7,0.224,0.7,0.616l0,1.596c0,0.476-0.196,0.672-0.672,0.672l-6.496,0l0,7.812c0,0.504-0.196,0.7-0.672,0.7l-2.184,0c-0.56,0-0.756-0.14-0.756-0.756l0-17.92c0-0.448,0.196-0.7,0.644-0.7l10.556,0c0.42,0,0.588,0.14,0.588,0.476z M159.514,41.588c0,0.336-0.224,0.532-0.56,0.532l-1.344,0c-1.456,0-2.1-0.7-2.296-1.652l-0.056,0c-0.7,1.036-2.52,1.988-4.06,1.988c-3.948,0-5.74-3.248-5.74-6.888c0-4.844,2.912-7.392,6.048-7.392c1.484,0,2.884,0.672,3.584,1.624l0.056-0.756c0.028-0.308,0.252-0.504,0.588-0.504l1.96,0c0.364,0,0.588,0.196,0.588,0.616l0,9.716c0,0.392,0.056,0.672,0.168,0.812c0.084,0.084,0.196,0.112,0.336,0.112l0.224,0c0.336,0,0.504,0.112,0.504,0.476l0,1.316z M154.894,37.78l0-5.404c-0.56-0.812-1.708-1.428-2.772-1.428c-1.708,0-3.164,1.456-3.164,4.396c0,2.352,0.896,4.34,2.968,4.34c1.372,0,2.548-1.036,2.968-1.904z M155.874,24.06c0,0.168-0.112,0.308-0.336,0.42l-3.948,2.1c-0.196,0.112-0.336,0.168-0.476,0.168c-0.168,0-0.308-0.112-0.476-0.336l-0.336-0.476c-0.084-0.14-0.14-0.224-0.14-0.336c0-0.14,0.084-0.28,0.336-0.476l3.556-2.52c0.224-0.14,0.364-0.252,0.504-0.252c0.168,0,0.308,0.112,0.476,0.364l0.672,0.952c0.112,0.14,0.168,0.28,0.168,0.392z M173.836,41.168c0,0.224-0.14,0.336-0.392,0.448c-1.344,0.616-2.576,0.84-4.06,0.84c-4.312,0-6.692-2.688-6.692-7c0-4.34,2.604-7.28,6.944-7.28c1.26,0,2.576,0.252,3.752,0.784c0.224,0.112,0.336,0.168,0.336,0.392c0,0.084-0.028,0.252-0.056,0.336l-0.364,1.484c-0.056,0.252-0.168,0.392-0.336,0.392c-0.084,0-0.196-0.056-0.308-0.112c-0.812-0.336-1.708-0.616-2.688-0.616c-2.408,0-3.78,1.708-3.78,4.452c0,2.688,1.232,4.536,3.64,4.536c1.204,0,1.96-0.224,2.94-0.616c0.084-0.028,0.196-0.084,0.28-0.084c0.168,0,0.28,0.14,0.336,0.336l0.364,1.232c0.056,0.196,0.084,0.364,0.084,0.476z M181.578,24.984c0,1.092-0.952,1.764-1.876,1.764s-1.904-0.616-1.904-1.736s0.924-1.792,1.904-1.792c0.952,0,1.876,0.644,1.876,1.764z M181.41,41.42c0,0.504-0.224,0.7-0.7,0.7l-1.96,0c-0.504,0-0.728-0.196-0.728-0.7l0-12.236c0-0.476,0.28-0.644,0.728-0.644l1.96,0c0.448,0,0.7,0.14,0.7,0.644l0,12.236z M190.16,41.42c0,0.476-0.224,0.7-0.616,0.7l-2.128,0c-0.392,0-0.644-0.196-0.644-0.672l0-18.368c0-0.476,0.196-0.616,0.56-0.672l2.016-0.28c0.056,0,0.14-0.028,0.196-0.028c0.336,0,0.616,0.168,0.616,0.616l0,18.704z"/></svg>
